<svg id="reshot-icon-settings-page-NQG9WJBEVY" xmlns="http://www.w3.org/2000/svg" width="108.567" height="108.571" viewBox="0 0 108.567 108.571">
  <path id="Path_26" data-name="Path 26" d="M106.923,32.118H86.756V1.649A1.649,1.649,0,0,0,85.112,0H1.644A1.647,1.647,0,0,0,0,1.649v90.2a1.64,1.64,0,0,0,1.025,1.52,1.613,1.613,0,0,0,.62.124A1.649,1.649,0,0,0,2.823,93L20.829,74.576H37.854V90.794A1.644,1.644,0,0,0,39.5,92.438H90.472l15.281,15.638a1.649,1.649,0,0,0,1.178.5,1.688,1.688,0,0,0,.62-.12,1.656,1.656,0,0,0,1.016-1.524V33.758a1.647,1.647,0,0,0-1.644-1.64ZM20.13,71.283a1.635,1.635,0,0,0-1.176.5L3.286,87.815V3.293H83.461V71.285H20.13Zm85.146,31.6L92.334,89.645a1.635,1.635,0,0,0-1.176-.5H41.142V74.576h43.97a1.647,1.647,0,0,0,1.644-1.649V35.4h18.52Z" transform="translate(0 0)" fill="#fac740"/>
  <path id="Path_27" data-name="Path 27" d="M61.325,26.087,53,24.766c-.086-.226-.176-.432-.271-.649l4.976-6.837a1.642,1.642,0,0,0-.167-2.128L51.565,9.182a1.649,1.649,0,0,0-2.128-.167L42.6,13.989c-.226-.1-.432-.185-.649-.274L40.62,5.371A1.638,1.638,0,0,0,39,3.989l-4.227-.018-4.216.018a1.642,1.642,0,0,0-1.619,1.382l-1.33,8.344c-.215.084-.43.176-.649.269L20.228,9.108a1.678,1.678,0,0,0-2.262.088l-5.946,5.955a1.647,1.647,0,0,0-.167,2.128l4.976,6.837c-.095.226-.185.432-.271.649L8.217,26.092a1.649,1.649,0,0,0-1.386,1.617l-.016,4.232.009,4.214A1.66,1.66,0,0,0,8.235,37.79L16.55,39.11c.086.226.176.432.271.649L11.845,46.6a1.647,1.647,0,0,0,.167,2.128l5.96,5.964a1.64,1.64,0,0,0,2.131.167l6.842-4.976c.226.093.432.185.654.274l1.33,8.333a1.647,1.647,0,0,0,1.619,1.386l4.227.014,4.207-.014a1.653,1.653,0,0,0,1.633-1.409l1.323-8.314c.226-.084.434-.176.651-.274l6.84,4.976a1.642,1.642,0,0,0,2.131-.167l5.96-5.964a1.644,1.644,0,0,0,.167-2.128l-4.976-6.842c.095-.226.185-.432.271-.649l8.346-1.325a1.647,1.647,0,0,0,1.386-1.617l.014-4.232-.014-4.2A1.658,1.658,0,0,0,61.325,26.087ZM59.45,34.745l-7.916,1.26a1.64,1.64,0,0,0-1.3,1.1,16.285,16.285,0,0,1-.873,2.085,1.642,1.642,0,0,0,.14,1.7l4.711,6.5-3.974,3.972-6.489-4.709a1.631,1.631,0,0,0-1.705-.142,16.893,16.893,0,0,1-2.09.875,1.647,1.647,0,0,0-1.1,1.3L37.589,56.6H31.964L30.7,48.687a1.629,1.629,0,0,0-1.1-1.3,15.427,15.427,0,0,1-2.074-.871,1.656,1.656,0,0,0-1.717.133l-6.5,4.714L15.34,47.389,20.051,40.9a1.638,1.638,0,0,0,.136-1.71,14.952,14.952,0,0,1-.862-2.072,1.642,1.642,0,0,0-1.305-1.108L10.1,34.754V29.131l7.916-1.26a1.649,1.649,0,0,0,1.305-1.108,15.111,15.111,0,0,1,.864-2.076,1.638,1.638,0,0,0-.138-1.71l-4.714-6.5L19.312,12.5l6.5,4.709a1.635,1.635,0,0,0,1.7.142,17.19,17.19,0,0,1,2.092-.871,1.633,1.633,0,0,0,1.106-1.3l1.262-7.916h5.625l1.26,7.916a1.642,1.642,0,0,0,1.106,1.3,16.342,16.342,0,0,1,2.092.875,1.64,1.64,0,0,0,1.7-.142L50.235,12.5l3.974,3.981L49.5,22.968a1.653,1.653,0,0,0-.142,1.7,16.284,16.284,0,0,1,.875,2.09,1.644,1.644,0,0,0,1.3,1.1l7.916,1.26v2.8Z" transform="translate(8.599 5.011)" fill="#fac740"/>
  <path id="Path_28" data-name="Path 28" d="M24.1,12.43a8.821,8.821,0,1,0,8.821,8.821A8.821,8.821,0,0,0,24.1,12.43Zm0,14.358a5.532,5.532,0,1,1,5.532-5.53,5.532,5.532,0,0,1-5.532,5.53Z" transform="translate(19.278 15.684)" fill="#fac740"/>
</svg>
