<svg xmlns="http://www.w3.org/2000/svg" width="121.183" height="110.89" viewBox="0 0 121.183 110.89">
  <g id="reshot-icon-bookshelf-PZRCY4KJ78" transform="translate(1.5 1.842)">
    <rect id="Rectangle_64" data-name="Rectangle 64" width="23.095" height="102.673" rx="5" transform="translate(0 2.237)" fill="none" stroke="#fac740" stroke-linecap="round" stroke-linejoin="round" stroke-width="3"/>
    <rect id="Rectangle_65" data-name="Rectangle 65" width="23.095" height="102.673" rx="5" transform="translate(23.503 2.237)" fill="none" stroke="#fac740" stroke-linecap="round" stroke-linejoin="round" stroke-width="3"/>
    <ellipse id="Ellipse_4" data-name="Ellipse 4" cx="4.384" cy="8.606" rx="4.384" ry="8.606" transform="translate(7.089 53.574)" fill="none" stroke="#fac740" stroke-width="3"/>
    <ellipse id="Ellipse_5" data-name="Ellipse 5" cx="4.384" cy="8.606" rx="4.384" ry="8.606" transform="translate(30.667 53.574)" fill="none" stroke="#fac740" stroke-width="3"/>
    <path id="Path_2" data-name="Path 2" d="M12.646,38.456H34.47" transform="translate(-12.179 -16.65)" fill="none" stroke="#fac740" stroke-linecap="round" stroke-linejoin="round" stroke-width="3"/>
    <path id="Path_3" data-name="Path 3" d="M12.646,42.933H34.47" transform="translate(-12.179 -14.546)" fill="none" stroke="#fac740" stroke-linecap="round" stroke-linejoin="round" stroke-width="3"/>
    <path id="Path_4" data-name="Path 4" d="M34.5,38.456H56.321" transform="translate(-10.358 -16.65)" fill="none" stroke="#fac740" stroke-linecap="round" stroke-linejoin="round" stroke-width="3"/>
    <path id="Path_5" data-name="Path 5" d="M34.5,42.933H56.321" transform="translate(-10.358 -14.546)" fill="none" stroke="#fac740" stroke-linecap="round" stroke-linejoin="round" stroke-width="3"/>
    <rect id="Rectangle_66" data-name="Rectangle 66" width="23.095" height="102.673" rx="5" transform="translate(47.006 2.237)" fill="none" stroke="#fac740" stroke-linecap="round" stroke-linejoin="round" stroke-width="3"/>
    <ellipse id="Ellipse_6" data-name="Ellipse 6" cx="4.384" cy="8.606" rx="4.384" ry="8.606" transform="translate(54.17 53.574)" fill="none" stroke="#fac740" stroke-width="3"/>
    <path id="Path_6" data-name="Path 6" d="M55.778,38.456H77.6" transform="translate(-8.585 -16.65)" fill="none" stroke="#fac740" stroke-linecap="round" stroke-linejoin="round" stroke-width="3"/>
    <path id="Path_7" data-name="Path 7" d="M55.778,42.933H77.6" transform="translate(-8.585 -14.546)" fill="none" stroke="#fac740" stroke-linecap="round" stroke-linejoin="round" stroke-width="3"/>
    <path id="Path_42" data-name="Path 42" d="M12.9.995,24.086.02c3.662-.319,6.372,3.287,6.052,8.055L24.473,92.7c-.319,4.768-3.546,8.891-7.208,9.21l-11.187.975C2.416,103.205-.294,99.6.026,94.832L5.691,10.205C6.011,5.438,9.238,1.314,12.9.995Z" transform="matrix(0.966, -0.259, 0.259, 0.966, 62.071, 7.807)" fill="none" stroke="#fac740" stroke-width="3"/>
    <path id="Path_43" data-name="Path 43" d="M5.09.009C7.569-.207,9.325,3.4,9.013,8.073S6.437,16.7,3.958,16.919-.277,13.525.036,8.855,2.612.225,5.09.009Z" transform="matrix(0.966, -0.259, 0.259, 0.966, 85.041, 54.88)" fill="none" stroke="#fac740" stroke-width="3"/>
    <path id="Path_8" data-name="Path 8" d="M80.837,43.758l18.946-6.889" transform="translate(-6.496 -17.396)" fill="none" stroke="#fac740" stroke-linecap="round" stroke-linejoin="round" stroke-width="3"/>
    <path id="Path_9" data-name="Path 9" d="M82,48.082l18.946-6.889" transform="translate(-6.4 -15.364)" fill="none" stroke="#fac740" stroke-linecap="round" stroke-linejoin="round" stroke-width="3"/>
  </g>
</svg>
