<svg xmlns="http://www.w3.org/2000/svg" xmlns:xlink="http://www.w3.org/1999/xlink" width="230.016" height="253.074" viewBox="0 0 230.016 253.074">
  <defs>
    <radialGradient id="radial-gradient" cx="0.658" cy="0.525" fx="0.4473014771938324" fy="0.9442014694213867" r="0.58" gradientUnits="objectBoundingBox">
      <stop offset="0" stop-color="#6fc0ef"/>
      <stop offset="0.141" stop-color="#6fc0ef"/>
      <stop offset="0.466" stop-color="#85c8f7"/>
      <stop offset="0.918" stop-color="#1d4b9c"/>
      <stop offset="1" stop-color="#1d4b9c"/>
    </radialGradient>
  </defs>
  <g id="Group_104" data-name="Group 104" transform="translate(-354.159 -702)">
    <g id="Group_103" data-name="Group 103" transform="translate(354.159 741.306)">
      <path id="Path_227" data-name="Path 227" d="M266.373,152.769l-.128-33.162c-.632-27.633-29.466-65.028-76.28-55.768-37.82,8.283-52.342,43.234-48.918,78.1.033,8.422,11.613,8.378,11.581-.045-2.361-43.158,13.84-66.74,51.855-67.315,24.837-.579,44.949,19.041,49.508,41,1.475,7.1,1.01,23.158.8,37.766l-122.155.569.353,91.79q1.17,22.005,24.364,21.818l97.613-.376c11.7-1.108,18.671-8.167,20.237-18.438l-.37-95.966Zm-79.542,79.694,9.359-21.52c-10.437-10.619-3.379-23.215,7.346-23.256,11.646-.045,17.619,13.087,8.38,23.19l9.6,21.452Z" transform="translate(-132.639 -62.4)" fill="#133f65"/>
    </g>
    <g id="Group_94" data-name="Group 94" transform="translate(408.573 702)">
      <path id="Path_225" data-name="Path 225" d="M297.882,174.3V133.344c-.65-34.128-36.077-80.443-93.931-69.23-46.744,10.049-64.842,53.141-60.779,96.206,0,10.4,14.3,10.4,14.3,0-2.711-53.306,17.408-82.35,64.354-82.88,30.673-.6,55.416,23.727,60.941,50.866,1.788,8.776,1.137,28.6.813,46.64l-150.85.122V288.419q1.341,27.18,29.983,27.058H283.256c14.453-1.313,23.095-10,25.077-22.672V174.3Zm-98.6,98.035,11.66-26.53c-12.838-13.164-4.063-28.683,9.182-28.683,14.382,0,21.7,16.244,10.238,28.676l11.755,26.537Z" transform="translate(-132.731 -62.404)" fill="url(#radial-gradient)"/>
      <path id="Path_226" data-name="Path 226" d="M287.176,356.974a6.917,6.917,0,1,0-8.618,6.7h-.033v16.247h3.228V363.725A6.916,6.916,0,0,0,287.176,356.974Z" transform="translate(-192.412 -184.497)" fill="#11a4e2"/>
    </g>
  </g>
</svg>
